<svg width="210" height="48" viewBox="0 0 210 48" fill="none" xmlns="http://www.w3.org/2000/svg">
<path d="M21.7471 23.6845H19.1844V25.7004H21.7471V23.6845Z" fill="#C8499A"/>
<path d="M8.83127 28.0943H6.33691V30.1102H8.83127V28.0943Z" fill="#C8499A"/>
<path d="M12.3506 28.0943H9.8562V30.1102H12.3506V28.0943Z" fill="#C8499A"/>
<path d="M41.3604 19.8732H39.1735H37.5676V17.8888C37.5676 17.2589 37.4992 16.6604 37.3284 16.0934C37.1575 15.5265 36.8842 14.991 36.5083 14.5185C36.1324 14.046 35.6199 13.6996 35.039 13.4161C34.4582 13.1641 33.7064 13.0066 32.8522 13.0066C32.0663 13.0066 31.3487 13.1011 30.7679 13.3216C30.1528 13.5421 29.6061 13.8571 29.1277 14.235C28.6152 14.6445 28.1368 15.0855 27.6926 15.621V9.3528H25.1299V19.8102H23.7973H21.7813V12.9751H19.2186H12.4873C11.5305 12.9751 10.7105 13.1011 10.0271 13.3531C9.3437 13.6051 8.797 13.9831 8.42114 14.487C8.04527 14.991 7.87443 15.621 7.87443 16.4084C7.87443 16.9439 7.97693 17.3534 8.14778 17.6998C8.31862 18.0463 8.62615 18.3298 8.96785 18.5818C9.34371 18.8338 9.82207 19.0543 10.403 19.2433C10.9838 19.4323 11.6672 19.6527 12.4189 19.8732C13.1023 20.0622 13.6149 20.2512 13.9907 20.4087C14.3324 20.5662 14.6058 20.7552 14.7425 20.9757C14.8791 21.1962 14.9475 21.5111 14.9475 21.8891C14.9475 22.6766 14.7425 23.2436 14.3324 23.6215C13.9224 23.9995 13.3073 24.1885 12.4531 24.1885H7.02019C6.33681 24.1885 5.7901 24.094 5.27756 23.905C4.79919 23.716 4.38916 23.4325 4.14997 23.0861C3.91079 22.7396 3.73994 22.3616 3.73994 21.8891C3.73994 21.6371 3.77411 21.2592 3.84245 20.6607C3.91079 20.0937 4.0133 19.4323 4.14997 18.6763L1.62145 18.3613C1.51894 18.8968 1.45059 19.3693 1.38226 19.8417C1.31392 20.3142 1.24558 20.7237 1.21141 21.0702C1.17724 21.4166 1.14307 21.7001 1.14307 21.9521C1.14307 22.5506 1.27975 23.149 1.58727 23.653C1.8948 24.1885 2.30483 24.6295 2.81737 25.0074C3.32991 25.3854 3.94496 25.7004 4.66251 25.9209C5.38007 26.1414 6.13179 26.2359 6.98602 26.2359H12.4189C13.444 26.2359 14.3666 26.0469 15.0842 25.6689C15.8017 25.2909 16.4168 24.787 16.8268 24.1255C17.2368 23.464 17.4418 22.7396 17.4418 21.8891C17.4418 21.3222 17.3393 20.8182 17.1685 20.3772C16.9976 19.9677 16.6901 19.5897 16.3484 19.3063C15.9725 19.0228 15.5284 18.7393 15.0158 18.5188C14.4691 18.2983 13.8541 18.0778 13.1707 17.8888C12.7606 17.7628 12.4189 17.6684 12.0772 17.5739C11.7356 17.4794 11.4622 17.3849 11.1889 17.2589C10.9155 17.1329 10.7446 17.0069 10.608 16.8494C10.4713 16.6919 10.403 16.4714 10.403 16.2509C10.403 15.9674 10.4713 15.7155 10.608 15.5265C10.7446 15.3375 10.9497 15.2115 11.223 15.117C11.4964 15.0225 11.9064 14.991 12.3506 14.991H19.1845V21.9206H23.7632H37.1575H37.5676H39.1735H41.3604H43.9231V9.38431H41.3604V19.8732ZM27.6585 18.0778C27.8976 17.7943 28.171 17.5109 28.4785 17.1959C28.8202 16.8179 29.2302 16.4714 29.6744 16.1564C30.1186 15.8415 30.5628 15.5895 31.0412 15.369C31.5196 15.18 32.0321 15.054 32.613 15.054C33.1255 15.054 33.5697 15.1485 33.9456 15.3375C34.3215 15.5265 34.5948 15.81 34.7657 16.2194C34.9365 16.6289 35.039 17.1644 35.039 17.8258V19.8102H27.6926V18.0778H27.6585Z" fill="#C8499A"/>
<path d="M49.561 9.3843H46.9983V21.9206H49.561V9.3843Z" fill="#C8499A"/>
<path d="M65.0398 22.0781C65.0398 22.4876 64.9373 22.8656 64.7323 23.1805C64.5273 23.4955 64.2197 23.779 63.7755 23.968C63.3313 24.157 62.7846 24.2515 62.0671 24.2515C61.3837 24.2515 60.8028 24.157 60.3244 23.968C59.8461 23.779 59.4702 23.4955 59.231 23.1491C58.9577 22.8026 58.8552 22.3931 58.8552 21.9206C58.8552 21.7001 58.8893 21.3851 58.9235 20.9127C58.9577 20.4402 59.0602 19.9047 59.1285 19.2433C59.1969 18.5818 59.3335 17.8573 59.4702 17.0699L56.9417 16.7549C56.8733 17.2274 56.7708 17.6999 56.7025 18.2038C56.6342 18.7078 56.5316 19.2118 56.4633 19.6842C56.395 20.1567 56.3266 20.5977 56.2925 21.0072C56.2583 21.3851 56.2241 21.7001 56.2241 21.9521C56.2241 22.8026 56.4633 23.527 56.9759 24.1885C57.4884 24.85 58.1718 25.3539 59.026 25.7319C59.9144 26.1099 60.9053 26.2989 61.9987 26.2989C63.058 26.2989 64.0147 26.1099 64.8348 25.7634C65.6549 25.4169 66.3382 24.913 66.8166 24.283C67.295 23.653 67.5342 22.8971 67.5342 22.0466V9.3528H64.9715V22.0781H65.0398Z" fill="#C8499A"/>
<path d="M78.605 23.6845H76.1106V25.7004H78.605V23.6845Z" fill="#C8499A"/>
<path d="M82.0903 23.6845H79.5959V25.7004H82.0903V23.6845Z" fill="#C8499A"/>
<path d="M90.8033 13.5421C90.0174 13.1956 89.0949 13.0381 88.0356 13.0381C87.4889 13.0381 86.908 13.0696 86.3613 13.1641C85.7804 13.2586 85.2337 13.3531 84.687 13.4791L84.9262 15.369C85.5413 15.2745 86.088 15.2115 86.6005 15.18C87.113 15.1485 87.5231 15.117 87.7964 15.117C88.8215 15.117 89.6074 15.306 90.0858 15.6524C90.5641 16.0304 90.8033 16.5659 90.8033 17.2589V19.8732H83.3886H80.9967V13.0381H78.434V19.8732H75.393H73.2061V9.41579H70.6434V21.9206H73.2061H75.393H80.9967H83.3886H93.3318V17.2274C93.3318 16.3454 93.0927 15.5895 92.6485 14.9595C92.2384 14.361 91.6234 13.8571 90.8033 13.5421Z" fill="#C8499A"/>
<path d="M89.6757 23.6845H87.113V25.7004H89.6757V23.6845Z" fill="#C8499A"/>
<path d="M97.3298 6.80144C97.2615 6.67545 97.2273 6.54946 97.2273 6.39197C97.2273 6.13998 97.2956 5.95099 97.4665 5.79349C97.6373 5.636 97.8765 5.573 98.184 5.573C98.2865 5.573 98.4232 5.57301 98.5257 5.60451C98.6282 5.63601 98.7307 5.6675 98.8674 5.73049L99.5166 4.65956C99.3458 4.53357 99.1066 4.43908 98.8674 4.40758C98.5941 4.34459 98.3549 4.31307 98.1157 4.31307C97.6715 4.31307 97.2615 4.40757 96.8856 4.59656C96.5097 4.78555 96.2022 5.03755 95.9972 5.35253C95.7922 5.66751 95.6555 6.04549 95.6555 6.45497C95.6555 6.61246 95.6897 6.73844 95.7238 6.89593H95.2455V8.18737H99.8925V6.89593H97.364C97.3298 6.80144 97.3298 6.80144 97.3298 6.80144Z" fill="#C8499A"/>
<path d="M98.8333 9.3843H96.2706V21.9206H98.8333V9.3843Z" fill="#C8499A"/>
<path d="M109.631 9.3843H107.068V11.4002H109.631V9.3843Z" fill="#C8499A"/>
<path d="M122.034 14.928C121.692 14.487 121.214 14.1405 120.633 13.8885C120.052 13.6366 119.369 13.5106 118.549 13.5106H115.508L115.986 12.7231C116.089 12.5026 116.225 12.2821 116.362 12.0617C116.499 11.8412 116.67 11.5892 116.875 11.2742C117.08 10.9592 117.353 10.5812 117.695 10.1402L120.872 5.44702L119.027 4.28158L115.542 9.00632C115.2 9.47879 114.893 9.88828 114.654 10.2348C114.414 10.5812 114.244 10.8647 114.107 11.0852C113.97 11.3372 113.834 11.5262 113.731 11.7467L112.74 13.4476L114.346 15.5895H118.549C118.993 15.5895 119.335 15.684 119.642 15.8414C119.95 15.9989 120.155 16.2824 120.292 16.6289C120.428 17.0069 120.497 17.4794 120.497 18.1093V19.8732H111.681H109.665V13.0381H107.102V22.2041C107.102 22.8656 106.966 23.3695 106.658 23.7475C106.35 24.1255 105.94 24.283 105.462 24.283C105.36 24.283 105.223 24.283 105.052 24.2515C104.881 24.2515 104.676 24.22 104.471 24.22L104.369 26.2359C104.574 26.2674 104.779 26.2674 104.95 26.2989C105.155 26.2989 105.325 26.3304 105.496 26.3304C106.316 26.3304 107.068 26.1414 107.683 25.7949C108.298 25.4484 108.811 24.9444 109.152 24.346C109.494 23.716 109.665 22.9916 109.665 22.2041V21.9206H111.681H123.059V18.0778C123.059 17.4793 122.991 16.9124 122.82 16.3769C122.649 15.8414 122.376 15.369 122.034 14.928Z" fill="#C8499A"/>
<path d="M142.092 14.865C141.716 14.2035 141.135 13.7311 140.383 13.4161C139.631 13.1326 138.675 12.9751 137.513 12.9751C136.727 12.9751 136.009 13.0381 135.326 13.1326C134.677 13.2271 134.198 13.3531 133.891 13.4476C133.823 13.731 133.72 14.0775 133.652 14.5185C133.583 14.9595 133.481 15.4635 133.447 15.9989C133.378 16.5344 133.344 17.1329 133.344 17.6998C133.344 18.2668 133.378 18.8338 133.447 19.3377C133.481 19.4952 133.481 19.6527 133.515 19.8102H131.328H129.312V12.9751H126.75V22.1411C126.75 22.8026 126.613 23.3065 126.305 23.6845C125.998 24.0625 125.588 24.22 125.109 24.22C125.007 24.22 124.87 24.22 124.699 24.1885C124.529 24.1885 124.324 24.157 124.118 24.157L124.016 26.1729C124.221 26.2044 124.426 26.2044 124.597 26.2359C124.802 26.2359 124.973 26.2674 125.144 26.2674C125.964 26.2674 126.715 26.0784 127.33 25.7319C127.945 25.3854 128.458 24.8814 128.8 24.283C129.141 23.653 129.312 22.9286 129.312 22.1411V21.9206H131.328H142.672V17.5423C142.672 16.4399 142.502 15.5264 142.092 14.865ZM135.975 19.0228C135.941 18.5818 135.907 18.1408 135.907 17.7313C135.907 17.2904 135.941 16.8179 135.975 16.3454C136.009 15.9044 136.078 15.495 136.146 15.117C136.59 15.054 137.035 15.0225 137.513 15.0225C138.162 15.0225 138.709 15.0855 139.085 15.243C139.461 15.4005 139.734 15.6525 139.871 15.9989C140.007 16.3454 140.11 16.8494 140.11 17.5108V19.8417H136.078C136.044 19.6212 136.009 19.3377 135.975 19.0228Z" fill="#C8499A"/>
<path d="M6.81521 42.174H3.6033L3.09076 44.0639H0.869751L4.01333 33.2915H6.43935L9.58293 44.0639H7.36192L6.81521 42.174ZM6.2685 40.1581L5.20926 36.2208L4.15001 40.1581H6.2685Z" fill="#231C48"/>
<path d="M15.9384 33.323V40.6621C15.9384 41.796 15.665 42.678 15.1525 43.2764C14.64 43.8749 13.9566 44.1899 13.0682 44.1899C12.1456 44.1899 11.4281 43.8749 10.8813 43.2134C10.3346 42.5835 10.0613 41.67 10.0613 40.4731H12.1456C12.1456 40.9141 12.214 41.2605 12.3506 41.481C12.4873 41.7015 12.7265 41.8275 12.9998 41.8275C13.239 41.8275 13.444 41.733 13.5807 41.5125C13.7174 41.3235 13.7857 41.0086 13.7857 40.6306V33.2915H15.9384V33.323Z" fill="#231C48"/>
<path d="M19.7312 33.323V44.0954H17.6127V33.323H19.7312Z" fill="#231C48"/>
<path d="M26.6676 42.174H23.4557L22.9432 44.0639H20.7222L23.8657 33.2915H26.2918L29.4353 44.0639H27.2143L26.6676 42.174ZM26.1209 40.1581L25.0617 36.2208L24.0024 40.1581H26.1209Z" fill="#231C48"/>
<path d="M32.4421 42.048H35.2098V44.0639H30.3578V33.2915H32.4763V42.048H32.4421Z" fill="#231C48"/>
<path d="M48.6384 33.323V44.0954H46.5199V37.6383L44.5722 44.0954H42.8638L40.9161 37.6383V44.0954H38.7976V33.323H41.292L43.718 40.7881L46.1098 33.323H48.6384Z" fill="#231C48"/>
<path d="M52.2603 35.4019V37.5752H55.0964V39.5911H52.2603V41.9535H55.4381V44.0639H50.1418V33.2915H55.4381V35.4019H52.2603Z" fill="#231C48"/>
<path d="M62.4429 33.9844C63.1262 34.4254 63.6388 35.0554 64.0146 35.8743C64.3905 36.6933 64.5614 37.6383 64.5614 38.6777C64.5614 39.7171 64.3905 40.6621 64.0146 41.481C63.6388 42.3 63.1262 42.9299 62.4087 43.3709C61.7253 43.8119 60.9394 44.0324 60.0168 44.0324H56.7708V33.26H60.0168C60.9736 33.323 61.7595 33.5435 62.4429 33.9844ZM61.7595 41.0086C62.2037 40.4731 62.4087 39.6856 62.4087 38.7092C62.4087 37.7327 62.2037 36.9453 61.7595 36.3783C61.3153 35.8114 60.7002 35.5594 59.9143 35.5594H58.9234V41.8275H59.9143C60.7002 41.796 61.3153 41.544 61.7595 41.0086Z" fill="#231C48"/>
<path d="M67.8758 33.323V44.0954H65.7573V33.323H67.8758Z" fill="#231C48"/>
<path d="M69.5843 35.8428C69.9602 35.0239 70.4727 34.3624 71.1219 33.8899C71.7712 33.4175 72.5229 33.197 73.3771 33.197C74.4022 33.197 75.2906 33.5435 76.0082 34.2049C76.7257 34.8664 77.2383 35.8113 77.4774 36.9768H75.1881C75.0172 36.5358 74.7781 36.1893 74.4705 35.9373C74.163 35.7168 73.7872 35.5909 73.3771 35.5909C72.7279 35.5909 72.2154 35.8743 71.8053 36.4413C71.3953 37.0083 71.1903 37.7642 71.1903 38.7092C71.1903 39.6541 71.3953 40.4101 71.8053 40.9771C72.2154 41.544 72.7279 41.8275 73.3771 41.8275C73.7872 41.8275 74.1289 41.7015 74.4705 41.481C74.7781 41.2605 75.0172 40.9141 75.1881 40.4416H77.5116C77.2724 41.607 76.7599 42.5205 76.0423 43.1819C75.3248 43.8434 74.4364 44.1899 73.4113 44.1899C72.5571 44.1899 71.8395 43.9694 71.1561 43.4969C70.5069 43.0244 69.9944 42.3945 69.6185 41.544C69.2426 40.7251 69.0718 39.7801 69.0718 38.7092C69.0718 37.6382 69.2426 36.6618 69.5843 35.8428Z" fill="#231C48"/>
<path d="M84.1746 42.174H80.9627L80.4501 44.0639H78.2291L81.3727 33.2915H83.7987L86.9423 44.0639H84.7213L84.1746 42.174ZM83.6279 40.1581L82.5686 36.2208L81.5094 40.1581H83.6279Z" fill="#231C48"/>
<path d="M89.9834 42.048H92.7511V44.0639H87.899V33.2915H90.0175V42.048H89.9834Z" fill="#231C48"/>
<path d="M96.5438 35.8428C96.9196 35.0239 97.4322 34.3624 98.0814 33.8899C98.7306 33.4175 99.4823 33.197 100.337 33.197C101.362 33.197 102.25 33.5435 102.968 34.2049C103.685 34.8664 104.198 35.8113 104.437 36.9768H102.113C101.943 36.5358 101.703 36.1893 101.396 35.9373C101.088 35.7168 100.712 35.5909 100.302 35.5909C99.6532 35.5909 99.1406 35.8743 98.7306 36.4413C98.3206 37.0083 98.1156 37.7642 98.1156 38.7092C98.1156 39.6541 98.3206 40.4101 98.7306 40.9771C99.1406 41.544 99.6532 41.8275 100.302 41.8275C100.712 41.8275 101.054 41.7015 101.396 41.481C101.703 41.2605 101.943 40.9141 102.113 40.4416H104.437C104.198 41.607 103.685 42.5205 102.968 43.1819C102.25 43.8434 101.362 44.1899 100.337 44.1899C99.4823 44.1899 98.7648 43.9694 98.0814 43.4969C97.4322 43.0244 96.9196 42.3945 96.5438 41.544C96.1679 40.7251 95.9971 39.7801 95.9971 38.7092C95.9971 37.6382 96.1679 36.6618 96.5438 35.8428Z" fill="#231C48"/>
<path d="M107.854 35.4019V37.5752H110.69V39.5911H107.854V41.9535H111.032V44.0639H105.735V33.2915H111.032V35.4019H107.854Z" fill="#231C48"/>
<path d="M120.155 44.0639H118.036L114.517 37.4178V44.0639H112.399V33.2915H114.517L118.036 39.9691V33.2915H120.155V44.0639Z" fill="#231C48"/>
<path d="M127.911 33.323V35.4334H125.622V44.0954H123.503V35.4334H121.214V33.323H127.911Z" fill="#231C48"/>
<path d="M131.055 35.4019V37.5752H133.891V39.5911H131.055V41.9535H134.233V44.0639H128.936V33.2915H134.233V35.4019H131.055Z" fill="#231C48"/>
<path d="M140.041 44.0639L138.23 40.0006H137.718V44.0639H135.599V33.2915H139.119C139.802 33.2915 140.383 33.449 140.861 33.7325C141.34 34.0159 141.716 34.4254 141.955 34.9609C142.194 35.4649 142.297 36.0633 142.297 36.6933C142.297 37.4178 142.126 38.0477 141.818 38.6147C141.476 39.1817 140.998 39.5911 140.383 39.8116L142.365 44.0639H140.041ZM137.718 38.1737H139.016C139.392 38.1737 139.7 38.0477 139.871 37.8272C140.076 37.6067 140.144 37.2603 140.144 36.8193C140.144 36.4098 140.041 36.0948 139.871 35.8428C139.666 35.6224 139.392 35.4964 139.016 35.4964H137.718V38.1737Z" fill="#231C48"/>
<path d="M182.755 26.3068C183.308 26.3068 183.757 25.8934 183.757 25.3834C183.757 24.8734 183.308 24.46 182.755 24.46C182.202 24.46 181.753 24.8734 181.753 25.3834C181.753 25.8934 182.202 26.3068 182.755 26.3068Z" fill="#231C48"/>
<path d="M183.369 32.3148C183.369 32.3148 183.703 27.7472 186.761 25.8512C186.761 25.8512 179.443 27.3656 178.214 28.449L181.059 28.2889L179.549 32.3394L182.327 29.7171L183.369 32.3148Z" fill="#231C48"/>
<path d="M189.259 22.0716C189.871 22.0716 190.367 21.6141 190.367 21.0497C190.367 20.4854 189.871 20.0279 189.259 20.0279C188.647 20.0279 188.15 20.4854 188.15 21.0497C188.15 21.6141 188.647 22.0716 189.259 22.0716Z" fill="#C8499A"/>
<path d="M189.94 28.7444C189.94 28.7444 190.314 23.6721 193.706 21.5668C193.706 21.5668 185.586 23.2412 184.224 24.4477L187.376 24.2754L185.706 28.7691L188.791 25.8635L189.94 28.7444Z" fill="#C8499A"/>
<path d="M201.92 11.2251C199.783 8.5412 195.336 6.6206 191.957 5.83266C187.002 4.67537 181.566 5.22939 177.079 7.50703C171.095 10.5357 167.009 16.5068 166.595 22.7733C166.194 29.0522 169.493 35.4296 175.035 39.0862C178.975 41.6839 183.957 42.8535 188.765 42.4595C193.88 42.0409 198.354 39.5417 201.88 36.1806C197.86 42.5949 190.287 47.0148 182.274 47.6057C175.476 48.1105 168.518 45.9191 163.403 41.7701C157.633 37.0671 154.321 29.9017 154.655 22.8103C154.989 15.7188 158.942 8.83667 165.126 4.61381C169.733 1.46206 175.516 -0.212314 181.232 0.0216058C189.74 0.378641 196.992 5.06934 201.92 11.2251Z" fill="#C8499A"/>
<path d="M200.384 17.5656C201.712 17.5656 202.788 16.5734 202.788 15.3495C202.788 14.1256 201.712 13.1334 200.384 13.1334C199.056 13.1334 197.98 14.1256 197.98 15.3495C197.98 16.5734 199.056 17.5656 200.384 17.5656Z" fill="#231C48"/>
<path d="M201.853 31.9701C201.853 31.9701 202.654 21.0128 210 16.4575C210 16.4575 192.437 20.0894 189.499 22.6749L196.311 22.3055L192.705 32.0316L199.382 25.7528L201.853 31.9701Z" fill="#231C48"/>
</svg>
